<svg width="186" height="54" viewBox="0 0 186 54" fill="none" xmlns="http://www.w3.org/2000/svg">
<path d="M93.8344 39.4193C93.791 41.36 93.7585 43.3044 93.7007 45.2452C93.6934 45.5162 93.6139 45.8234 93.4694 46.0475C93.1766 46.4993 92.6526 46.6438 92.1683 46.492C91.6696 46.3366 91.3479 45.9065 91.3443 45.3536C91.3262 43.6152 91.3154 41.8805 91.3045 40.1421C91.3009 39.5241 91.2901 38.9097 91.2937 38.2917C91.2937 37.5435 91.8286 36.9942 92.5695 36.9978C94.9331 37.0087 97.2967 37.0267 99.6639 37.0484C100.351 37.0556 100.853 37.5833 100.846 38.2483C100.835 38.8916 100.322 39.412 99.6531 39.412C97.781 39.4084 95.9125 39.3903 94.0404 39.3723C93.9284 39.3723 93.8163 39.3434 93.7043 39.3289C93.7477 39.3578 93.7946 39.3831 93.838 39.412L93.8344 39.4193Z" fill="#2F4EFF" stroke="#2F4EFF" stroke-miterlimit="10"/>
<path d="M131.239 15.1473C125.659 8.23714 118.897 3.79904 109.594 5.69644C99.0772 7.83959 93.1248 15.4039 92.5682 26.9473C91.99 38.9352 83.468 49.1089 72.0547 51.4399C60.1571 53.8686 48.2631 47.8114 43.189 36.7378C38.1726 25.7908 41.5012 12.556 51.0857 5.34949C58.8596 -0.490878 69.561 -1.39079 78.2673 2.88468C80.1539 3.80989 85.7376 6.41926 84.7112 9.17681C84.5016 9.7406 84.0643 10.1888 83.5872 10.5538C83.1608 10.879 82.6873 11.1537 82.1633 11.2549C80.9056 11.5007 80.2189 10.4598 79.3443 9.75867C78.3974 8.99972 77.3855 8.31665 76.3193 7.73117C74.2665 6.59996 72.0185 5.83016 69.7019 5.47598C64.9747 4.75678 60.121 5.841 56.0479 8.31665C47.862 13.2933 44.1359 22.9609 46.9115 32.0142C49.604 40.8037 58.079 47.0163 67.0853 46.8103C76.4097 46.5971 84.6606 39.8857 86.7459 30.677C87.2555 28.4182 87.4471 26.0763 87.6531 23.7633C88.6036 12.9716 94.4186 5.61332 104.245 1.82937C113.931 -1.89676 122.934 0.188571 130.813 6.99751C133.534 9.35028 134.889 11.8115 131.239 15.1473Z" fill="#2F4EFF"/>
<path d="M159.828 0.210208C174.183 0.20298 185.9 11.8693 185.838 26.1051C185.777 40.3989 174.085 51.8664 159.643 51.7905C145.4 51.7182 134.211 40.5145 134.106 26.2136C133.998 11.7102 145.364 0.217437 159.828 0.210208ZM139.235 25.6642C139.108 37.2149 148.216 46.6512 159.647 46.8103C170.952 46.9657 180.428 37.5184 180.457 26.069C180.482 14.616 171.046 5.082 159.763 5.16512C148.664 5.24825 139.358 14.5401 139.235 25.6642Z" fill="#2F4EFF"/>
<path d="M131.603 36.9258C134.469 40.2182 133.606 42.5818 130.812 45.1081C120.884 54.0782 105.488 54.0385 95.7264 45.0647C92.6436 42.2313 92.2135 39.8243 95.3831 36.9764C106.847 50.2003 117.794 50.2256 131.607 36.9258H131.603Z" fill="#2F4EFF"/>
<path d="M3.12213 49.6218C3.26669 49.3327 3.41125 49.1194 3.5522 48.9749L35.2839 5.37091H4.77738C3.84133 5.37091 3.04985 4.57943 3.04985 3.64338C3.04985 2.70733 3.84133 1.91584 4.77738 1.91584H38.2366C38.739 1.77128 39.2449 1.91584 39.675 2.20497C39.8196 2.27725 40.0328 2.42182 40.1774 2.56638C40.6797 3.14102 40.6797 4.07707 40.1774 4.72399L8.15655 48.4725H38.8112C39.7473 48.4725 40.5388 49.1917 40.5388 50.2723C40.5388 51.2084 39.7473 51.9999 38.8112 51.9999H4.63282C4.48825 51.9999 4.27141 51.9276 4.13046 51.9276C3.98589 51.8553 3.84133 51.783 3.70038 51.6385C3.05346 51.2084 2.83661 50.3446 3.12574 49.6218H3.12213Z" fill="#2F4EFF" stroke="#2F4EFF" stroke-width="3" stroke-miterlimit="10"/>
</svg>
